<svg width="2816" height="1536" viewBox="0 0 2816 1536" fill="none" xmlns="http://www.w3.org/2000/svg">
<g id="Frame 1">
<rect width="2816" height="1536" fill="white"/>
<g id="Group 1">
<path id="dot-1-1-2" d="M607.007 877.198C621.073 877.198 632.476 865.795 632.476 851.728C632.476 837.662 621.073 826.259 607.007 826.259C592.94 826.259 581.537 837.662 581.537 851.728C581.537 865.795 592.94 877.198 607.007 877.198Z" fill="#FF0000"/>
<path id="dot-1-1-1" d="M583.47 1029.54C597.536 1029.54 608.939 1018.14 608.939 1004.07C608.939 990.003 597.536 978.6 583.47 978.6C569.403 978.6 558 990.003 558 1004.07C558 1018.14 569.403 1029.54 583.47 1029.54Z" fill="#FF0000"/>
<path id="dot-1-2-1" d="M641.62 702.791C655.686 702.791 667.09 691.387 667.09 677.321C667.09 663.254 655.686 651.851 641.62 651.851C627.553 651.851 616.15 663.254 616.15 677.321C616.15 691.387 627.553 702.791 641.62 702.791Z" fill="#FF0000"/>
<path id="dot-1-2-2" d="M785.611 517.263C799.678 517.263 811.081 505.86 811.081 491.794C811.081 477.727 799.678 466.324 785.611 466.324C771.545 466.324 760.141 477.727 760.141 491.794C760.141 505.86 771.545 517.263 785.611 517.263Z" fill="#FF0000"/>
<path id="dot-2-1" d="M1043.13 539.416C1057.2 539.416 1068.6 528.013 1068.6 513.946C1068.6 499.88 1057.2 488.477 1043.13 488.477C1029.07 488.477 1017.66 499.88 1017.66 513.946C1017.66 528.013 1029.07 539.416 1043.13 539.416Z" fill="#FF0000"/>
<path id="dot-2-2" d="M1209.28 398.194C1223.34 398.194 1234.75 386.791 1234.75 372.724C1234.75 358.658 1223.34 347.254 1209.28 347.254C1195.21 347.254 1183.81 358.658 1183.81 372.724C1183.81 386.791 1195.21 398.194 1209.28 398.194Z" fill="#FF0000"/>
<g id="dot-2-1-1">
<path d="M806.379 311.713C820.169 311.713 831.349 322.893 831.349 336.683C831.349 350.473 820.169 361.653 806.379 361.653C792.589 361.653 781.409 350.473 781.409 336.683C781.409 322.893 792.589 311.713 806.379 311.713Z" fill="#FF0000"/>
<path d="M806.379 311.713C820.169 311.713 831.349 322.893 831.349 336.683C831.349 350.473 820.169 361.653 806.379 361.653C792.589 361.653 781.409 350.473 781.409 336.683C781.409 322.893 792.589 311.713 806.379 311.713Z" stroke="black"/>
<path d="M806.379 311.713C820.169 311.713 831.349 322.893 831.349 336.683C831.349 350.473 820.169 361.653 806.379 361.653C792.589 361.653 781.409 350.473 781.409 336.683C781.409 322.893 792.589 311.713 806.379 311.713Z" stroke="black" stroke-opacity="0.2"/>
</g>
<path id="dot-2-1-2" d="M959.47 357.939C973.536 357.939 984.939 346.536 984.939 332.47C984.939 318.403 973.536 307 959.47 307C945.403 307 934 318.403 934 332.47C934 346.536 945.403 357.939 959.47 357.939Z" fill="#FF0000"/>
<path id="dot-2-2-1" d="M1011.29 193.24C1025.36 193.24 1036.76 181.837 1036.76 167.77C1036.76 153.704 1025.36 142.301 1011.29 142.301C997.223 142.301 985.82 153.704 985.82 167.77C985.82 181.837 997.223 193.24 1011.29 193.24Z" fill="#FF0000"/>
<path id="dot-2-2-2" d="M1274.35 198.778C1288.42 198.778 1299.82 187.375 1299.82 173.308C1299.82 159.242 1288.42 147.839 1274.35 147.839C1260.28 147.839 1248.88 159.242 1248.88 173.308C1248.88 187.375 1260.28 198.778 1274.35 198.778Z" fill="#FF0000"/>
<path id="dot-3-1" d="M1501.41 384.305C1515.48 384.305 1526.88 372.902 1526.88 358.835C1526.88 344.769 1515.48 333.366 1501.41 333.366C1487.35 333.366 1475.94 344.769 1475.94 358.835C1475.94 372.902 1487.35 384.305 1501.41 384.305Z" fill="#FF0000"/>
<path id="dot-3-2" d="M1653.71 398.151C1667.78 398.151 1679.18 386.747 1679.18 372.681C1679.18 358.614 1667.78 347.211 1653.71 347.211C1639.65 347.211 1628.24 358.614 1628.24 372.681C1628.24 386.747 1639.65 398.151 1653.71 398.151Z" fill="#FF0000"/>
<path id="dot-3-1-1" d="M1426.65 193.24C1440.72 193.24 1452.12 181.837 1452.12 167.77C1452.12 153.704 1440.72 142.301 1426.65 142.301C1412.58 142.301 1401.18 153.704 1401.18 167.77C1401.18 181.837 1412.58 193.24 1426.65 193.24Z" fill="#FF0000"/>
<path id="dot-3-1-2" d="M1551.26 76.9395C1565.32 76.9395 1576.73 65.5363 1576.73 51.4698C1576.73 37.4033 1565.32 26.0001 1551.26 26.0001C1537.19 26.0001 1525.79 37.4033 1525.79 51.4698C1525.79 65.5363 1537.19 76.9395 1551.26 76.9395Z" fill="#FF0000"/>
<path id="dot-3-2-1" d="M1674.48 243.126C1688.55 243.126 1699.95 231.723 1699.95 217.657C1699.95 203.59 1688.55 192.187 1674.48 192.187C1660.41 192.187 1649.01 203.59 1649.01 217.657C1649.01 231.723 1660.41 243.126 1674.48 243.126Z" fill="#FF0000"/>
<path id="dot-3-2-2" d="M1801.86 198.821C1815.92 198.821 1827.33 187.418 1827.33 173.352C1827.33 159.285 1815.92 147.882 1801.86 147.882C1787.79 147.882 1776.39 159.285 1776.39 173.352C1776.39 187.418 1787.79 198.821 1801.86 198.821Z" fill="#FF0000"/>
<path id="dot-4-1" d="M1721.55 652.948C1735.62 652.948 1747.02 641.544 1747.02 627.478C1747.02 613.411 1735.62 602.008 1721.55 602.008C1707.49 602.008 1696.08 613.411 1696.08 627.478C1696.08 641.544 1707.49 652.948 1721.55 652.948Z" fill="#FF0000"/>
<path id="dot-4-2" d="M1839.24 846.738C1853.31 846.738 1864.71 835.335 1864.71 821.269C1864.71 807.202 1853.31 795.799 1839.24 795.799C1825.17 795.799 1813.77 807.202 1813.77 821.269C1813.77 835.335 1825.17 846.738 1839.24 846.738Z" fill="#FF0000"/>
<path id="dot-4-1-2" d="M1974.92 544.911C1988.99 544.911 2000.39 533.508 2000.39 519.441C2000.39 505.375 1988.99 493.971 1974.92 493.971C1960.86 493.971 1949.45 505.375 1949.45 519.441C1949.45 533.508 1960.86 544.911 1974.92 544.911Z" fill="#FF0000"/>
<path id="dot-4-1-1" d="M1839.24 447.994C1853.31 447.994 1864.71 436.59 1864.71 422.524C1864.71 408.457 1853.31 397.054 1839.24 397.054C1825.17 397.054 1813.77 408.457 1813.77 422.524C1813.77 436.59 1825.17 447.994 1839.24 447.994Z" fill="#FF0000"/>
<path id="dot-4-2-1" d="M2323.82 658.442C2337.89 658.442 2349.29 647.039 2349.29 632.973C2349.29 618.906 2337.89 607.503 2323.82 607.503C2309.76 607.503 2298.35 618.906 2298.35 632.973C2298.35 647.039 2309.76 658.442 2323.82 658.442Z" fill="#FF0000"/>
<path id="dot-4-2-2" d="M2237.98 1037.8C2252.05 1037.8 2263.45 1026.4 2263.45 1012.33C2263.45 998.267 2252.05 986.864 2237.98 986.864C2223.92 986.864 2212.51 998.267 2212.51 1012.33C2212.51 1026.4 2223.92 1037.8 2237.98 1037.8Z" fill="#FF0000"/>
<path id="path-4" d="M1441.33 1122.59C1507.79 932.911 1521.63 883.068 1637.93 762.614" stroke="black" stroke-width="4" stroke-linecap="round"/>
<path id="path-3" d="M1439.75 1122.55C1548.62 886.745 1259.06 890.788 1409.56 518.893" stroke="black" stroke-width="4" stroke-linecap="round"/>
<path id="path-2" d="M1443.41 1114.98C1428.87 871.992 1270.34 889.99 1270.34 572.241" stroke="black" stroke-width="4" stroke-linecap="round"/>
<path id="path-1" d="M1439.95 1111.47C1365.53 941.169 1237.76 841.418 1135.35 773.646" stroke="black" stroke-width="4" stroke-linecap="round"/>
<path id="path-1-1" d="M1135.35 773.646C943.743 802.085 932.794 844.744 897.21 878.871" stroke="black" stroke-width="4" stroke-linecap="round"/>
<path id="dot-1" d="M1134.51 796.938C1148.58 796.938 1159.98 785.535 1159.98 771.469C1159.98 757.402 1148.58 745.999 1134.51 745.999C1120.45 745.999 1109.04 757.402 1109.04 771.469C1109.04 785.535 1120.45 796.938 1134.51 796.938Z" fill="#FF0000"/>
<path id="dot-2" d="M1267.43 597.566C1281.49 597.566 1292.9 586.163 1292.9 572.096C1292.9 558.03 1281.49 546.627 1267.43 546.627C1253.36 546.627 1241.96 558.03 1241.96 572.096C1241.96 586.163 1253.36 597.566 1267.43 597.566Z" fill="#FF0000"/>
<path id="dot-3" d="M1415.57 531.065C1429.64 531.065 1441.04 519.662 1441.04 505.596C1441.04 491.529 1429.64 480.126 1415.57 480.126C1401.51 480.126 1390.1 491.529 1390.1 505.596C1390.1 519.662 1401.51 531.065 1415.57 531.065Z" fill="#FF0000"/>
<path id="dot-4" d="M1638.48 788.631C1652.55 788.631 1663.95 777.228 1663.95 763.162C1663.95 749.095 1652.55 737.692 1638.48 737.692C1624.42 737.692 1613.01 749.095 1613.01 763.162C1613.01 777.228 1624.42 788.631 1638.48 788.631Z" fill="#FF0000"/>
<path id="dot-root" d="M1445.07 1155C1470.08 1155 1490.35 1134.73 1490.35 1109.72C1490.35 1084.71 1470.08 1064.44 1445.07 1064.44C1420.07 1064.44 1399.79 1084.71 1399.79 1109.72C1399.79 1134.73 1420.07 1155 1445.07 1155Z" fill="#FF0000"/>
<path id="dot-1-1" d="M896.374 904.932C910.44 904.932 921.843 893.529 921.843 879.462C921.843 865.396 910.44 853.993 896.374 853.993C882.307 853.993 870.904 865.396 870.904 879.462C870.904 893.529 882.307 904.932 896.374 904.932Z" fill="#FF0000"/>
<path id="dot-1-2" d="M871.452 705.559C885.519 705.559 896.922 694.156 896.922 680.09C896.922 666.023 885.519 654.62 871.452 654.62C857.385 654.62 845.982 666.023 845.982 680.09C845.982 694.156 857.385 705.559 871.452 705.559Z" fill="#FF0000"/>
<path id="path-1-2" d="M1135.35 773.647C923.691 748.201 911.596 710.033 872.288 679.499" stroke="black" stroke-width="4" stroke-linecap="round"/>
<path id="path-2-1" d="M1272.42 571.505C1223.96 531.354 1194.88 583.966 1050.89 510.586" stroke="black" stroke-width="4" stroke-linecap="round"/>
<path id="path-2-2" d="M1271.03 571.505C1286.26 469.05 1233.65 441.359 1210.11 372.133" stroke="black" stroke-width="4" stroke-linecap="round"/>
<path id="path-3-1" d="M1416.41 503.663C1428.21 442.744 1471.17 411.053 1500.87 361.056" stroke="black" stroke-width="4" stroke-linecap="round"/>
<path id="path-3-2" d="M1653.16 372.133C1536.59 405.361 1491.01 431.367 1417.79 505.048" stroke="black" stroke-width="4" stroke-linecap="round"/>
<path id="path-4-1" d="M1642.87 762.57C1625.47 671.191 1689.16 657.346 1722.39 626.886" stroke="black" stroke-width="4" stroke-linecap="round"/>
<path id="path-4-2" d="M1839.32 822.625C1790.23 804.106 1672.55 784.723 1641.17 759.323" stroke="black" stroke-width="4" stroke-linecap="round"/>
<path id="path-1-1-1" d="M897.21 878.871C710.298 957.789 782.294 896.87 584.306 1006.25" stroke="black" stroke-width="4" stroke-linecap="round"/>
<path id="path-1-1-2" d="M897.21 876.619C737.989 952.184 695.069 910.623 609.228 853.949" stroke="black" stroke-width="4" stroke-linecap="round"/>
<path id="path-1-2-1" d="M872.288 676.729C780.909 646.27 724.144 619.964 639.687 679.499" stroke="black" stroke-width="4" stroke-linecap="round"/>
<path id="path-1-2-2" d="M872.288 673.96C859.828 640.732 859.828 543.814 786.448 491.202" stroke="black" stroke-width="4" stroke-linecap="round"/>
<path id="path-2-1-1" d="M1038.43 507.817C1005.47 476.602 857.623 566.118 811.369 336.135" stroke="black" stroke-width="4" stroke-linecap="round"/>
<path id="path-2-1-2" d="M1046.06 510.586C1024.67 423.112 968.032 465.636 958.5 337" stroke="black" stroke-width="4" stroke-linecap="round"/>
<path id="path-2-2-1" d="M1210.11 372.133C1120.95 340.455 1016.79 289.542 1010.74 167.222" stroke="black" stroke-width="4" stroke-linecap="round"/>
<path id="path-2-2-2" d="M1207.34 369.364C1228.71 318.341 1240.04 264.963 1273.8 172.76" stroke="black" stroke-width="4" stroke-linecap="round"/>
<path id="path-3-1-1" d="M1500.87 358.287C1501.65 265.415 1433.11 284.194 1430.25 167.222" stroke="black" stroke-width="4" stroke-linecap="round"/>
<path id="path-3-1-2" d="M1503.64 358.287C1608.05 235.809 1553.61 273.015 1550.71 50.9216" stroke="black" stroke-width="4" stroke-linecap="round"/>
<path id="path-3-2-1" d="M1653.17 372.133C1652.92 296.758 1674.42 311.999 1675.32 217.065" stroke="black" stroke-width="4" stroke-linecap="round"/>
<path id="path-3-2-2" d="M1650.39 372.133C1720.67 345.48 1758.81 339.011 1802.69 172.76" stroke="black" stroke-width="4" stroke-linecap="round"/>
<path id="path-4-1-1" d="M1723.89 626.886C1752.65 562.237 1791.47 531.415 1838.69 421.976" stroke="black" stroke-width="4" stroke-linecap="round"/>
<path id="path-4-1-2" d="M1725.16 626.886C1840.88 647.338 1909.37 614.965 1974.37 518.893" stroke="black" stroke-width="4" stroke-linecap="round"/>
<path id="path-4-2-1" d="M2323.28 632.424C2037.95 644.642 2058.52 769.397 1838.69 821.832" stroke="black" stroke-width="4" stroke-linecap="round"/>
<path id="path-4-2-2" d="M2237.44 1011.79C2126.43 863.337 1952.2 951.674 1838.34 822.299" stroke="black" stroke-width="4" stroke-linecap="round"/>
</g>
</g>
</svg>
